<svg width="187" height="56" viewBox="0 0 187 56" fill="none" xmlns="http://www.w3.org/2000/svg">
<g clip-path="url(#clip0_195_698)">
<path d="M171.945 0.00072922H14.8858C14.3133 0.00072922 13.7477 0.00072922 13.1767 0.00349696C12.6987 0.00626471 12.2245 0.014305 11.742 0.0210721C10.6936 0.0320072 9.64776 0.113759 8.61344 0.265616C7.58057 0.420779 6.58006 0.713306 5.64574 1.1333C4.71256 1.55685 3.85989 2.10721 3.11866 2.76442C2.37354 3.41977 1.75242 4.17728 1.27919 5.0078C0.804656 5.83667 0.475613 6.72487 0.303424 7.64175C0.129599 8.55746 0.0360618 9.48374 0.0236526 10.4123C0.0091644 10.8366 0.00763439 11.2623 0 11.6866V43.6738C0.00763439 44.1035 0.0091644 44.5197 0.0236526 44.9496C0.0360656 45.878 0.129603 46.8043 0.303424 47.7199C0.475137 48.6373 0.8042 49.5261 1.27919 50.3552C1.7522 51.1831 2.37341 51.9375 3.11866 52.5892C3.85708 53.2493 4.7103 53.8001 5.64574 54.2204C6.58005 54.6415 7.58045 54.9358 8.61344 55.0933C9.64794 55.244 10.6937 55.3258 11.742 55.338C12.2245 55.3474 12.6987 55.3528 13.1767 55.3528C13.7476 55.3556 14.3133 55.3556 14.8858 55.3556H171.945C172.506 55.3556 173.077 55.3556 173.638 55.3528C174.113 55.3528 174.601 55.3474 175.077 55.338C176.123 55.3264 177.167 55.2446 178.199 55.0933C179.236 54.9347 180.24 54.6405 181.178 54.2204C182.113 53.7998 182.966 53.2491 183.703 52.5892C184.447 51.935 185.069 51.1811 185.548 50.3552C186.019 49.5255 186.345 48.6368 186.515 47.7199C186.689 46.8041 186.786 45.8781 186.804 44.9496C186.81 44.5197 186.81 44.1035 186.81 43.6738C186.823 43.171 186.823 42.671 186.823 42.1601V13.1975C186.823 12.6907 186.823 12.188 186.81 11.6866C186.81 11.2623 186.81 10.8366 186.804 10.4122C186.786 9.4836 186.689 8.55753 186.515 7.64169C186.345 6.72535 186.019 5.83721 185.548 5.00774C184.584 3.34305 183.056 1.988 181.178 1.13318C180.24 0.714208 179.236 0.421759 178.199 0.265491C177.167 0.112965 176.123 0.0311851 175.077 0.0208784C174.601 0.0141251 174.113 0.00601561 173.638 0.00331706C173.077 0.000549316 172.506 0.000549316 171.945 0.000549316V0.00072922Z" fill="#A6A6A6"/>
<path d="M13.05 54.1488C12.5735 54.1488 12.1085 54.1434 11.6358 54.134C10.6564 54.1227 9.67933 54.0472 8.71256 53.9082C7.8111 53.7708 6.93783 53.5152 6.12155 53.1499C5.31275 52.7875 4.57507 52.3124 3.93675 51.7427C3.28919 51.1797 2.75007 50.5268 2.34075 49.8097C1.92692 49.088 1.64052 48.3144 1.49154 47.5159C1.33065 46.6579 1.2436 45.7903 1.23115 44.9206C1.22123 44.6287 1.20825 43.6567 1.20825 43.6567V11.6818C1.20825 11.6818 1.22208 10.7248 1.23123 10.4436C1.24315 9.57534 1.32969 8.70909 1.4901 7.8524C1.63936 7.05169 1.92598 6.27587 2.34003 5.55179C2.74785 4.83523 3.28398 4.18179 3.92763 3.6168C4.57056 3.04645 5.31061 2.56889 6.12078 2.20154C6.93519 1.83734 7.80681 1.58354 8.70645 1.44864C9.67639 1.30824 10.6568 1.23233 11.6396 1.22155L13.0508 1.20465H173.773L175.201 1.22223C176.175 1.23247 177.146 1.3077 178.107 1.44728C179.016 1.58388 179.897 1.83945 180.72 2.20559C182.343 2.94591 183.664 4.11715 184.497 5.55517C184.905 6.27425 185.187 7.04374 185.334 7.83754C185.497 8.70125 185.587 9.57431 185.606 10.4497C185.611 10.8417 185.611 11.2628 185.611 11.6818C185.623 12.2009 185.623 12.6949 185.623 13.193V42.1617C185.623 42.6646 185.623 43.1552 185.611 43.6499C185.611 44.1001 185.611 44.5124 185.604 44.9368C185.586 45.7966 185.497 46.6541 185.337 47.5023C185.191 48.3066 184.906 49.0863 184.493 49.8139C184.08 50.5232 183.544 51.1705 182.904 51.7319C182.265 52.3047 181.526 52.7826 180.716 53.1472C179.894 53.5154 179.015 53.7719 178.107 53.9082C177.141 54.048 176.163 54.1234 175.184 54.134C174.726 54.1434 174.246 54.1488 173.78 54.1488L172.085 54.1516L13.05 54.1488Z" fill="black"/>
<path d="M45.3872 28.0942C45.4021 26.9391 45.7089 25.8066 46.2791 24.802C46.8493 23.7974 47.6644 22.9533 48.6484 22.3483C48.0233 21.4555 47.1986 20.7207 46.2398 20.2024C45.281 19.6841 44.2146 19.3964 43.1252 19.3623C40.8013 19.1184 38.5484 20.7529 37.3643 20.7529C36.1571 20.7529 34.3339 19.3866 32.3706 19.427C31.1006 19.468 29.8629 19.8373 28.7782 20.4988C27.6934 21.1604 26.7985 22.0917 26.1806 23.202C23.5042 27.8358 25.5006 34.6459 28.0643 38.3915C29.347 40.2256 30.8462 42.2743 32.8077 42.2017C34.7272 42.1221 35.4441 40.9777 37.7612 40.9777C40.0567 40.9777 40.7293 42.2017 42.7306 42.1555C44.7904 42.122 46.0881 40.3132 47.3258 38.4617C48.2474 37.1549 48.9566 35.7105 49.4271 34.1821C48.2305 33.676 47.2093 32.8288 46.4909 31.7462C45.7725 30.6636 45.3886 29.3935 45.3872 28.0942Z" fill="white"/>
<path d="M41.6071 16.8989C42.7301 15.5507 43.2834 13.8179 43.1494 12.0684C41.4337 12.2486 39.8488 13.0686 38.7105 14.365C38.154 14.9984 37.7278 15.7352 37.4562 16.5334C37.1847 17.3316 37.073 18.1754 37.1278 19.0168C37.986 19.0256 38.835 18.8396 39.6109 18.4728C40.3868 18.1059 41.0693 17.5678 41.6071 16.8989Z" fill="white"/>
<path d="M69.6512 37.5585H63.1007L61.5277 42.2033H58.7532L64.9576 25.0184H67.8402L74.0447 42.2033H71.2229L69.6512 37.5585ZM63.7792 35.4151H68.9714L66.4118 27.8768H66.3402L63.7792 35.4151Z" fill="white"/>
<path d="M87.4442 35.9394C87.4442 39.8329 85.3603 42.3344 82.2155 42.3344C81.4189 42.3761 80.6266 42.1926 79.9294 41.8049C79.2323 41.4173 78.6583 40.8411 78.2734 40.1424H78.2139V46.3482H75.6421V29.6742H78.1315V31.7581H78.1788C78.5814 31.0627 79.165 30.4896 79.8675 30.0995C80.57 29.7095 81.3651 29.5172 82.1682 29.5431C85.3481 29.5431 87.4442 32.0568 87.4442 35.9394ZM84.8008 35.9394C84.8008 33.4028 83.4899 31.7351 81.4898 31.7351C79.5248 31.7351 78.2031 33.4379 78.2031 35.9394C78.2031 38.4639 79.5248 40.1546 81.4898 40.1546C83.4899 40.1546 84.8008 38.4991 84.8008 35.9394Z" fill="white"/>
<path d="M101.234 35.9396C101.234 39.833 99.1504 42.3345 96.0056 42.3345C95.2089 42.3762 94.4167 42.1927 93.7195 41.805C93.0223 41.4174 92.4484 40.8412 92.0634 40.1425H92.0039V46.3483H89.4321V29.6743H91.9215V31.7582H91.9688C92.3714 31.0629 92.955 30.4897 93.6575 30.0996C94.36 29.7096 95.1551 29.5173 95.9582 29.5432C99.1382 29.5432 101.234 32.0569 101.234 35.9396ZM98.5909 35.9396C98.5909 33.4029 97.28 31.7352 95.2798 31.7352C93.3148 31.7352 91.9931 33.438 91.9931 35.9396C91.9931 38.464 93.3148 40.1547 95.2798 40.1547C97.28 40.1547 98.5909 38.4992 98.5909 35.9396H98.5909Z" fill="white"/>
<path d="M110.348 37.4152C110.539 39.1194 112.195 40.2383 114.457 40.2383C116.625 40.2383 118.184 39.1194 118.184 37.5828C118.184 36.2489 117.243 35.4502 115.016 34.9029L112.789 34.3663C109.634 33.6041 108.169 32.1284 108.169 29.7336C108.169 26.7685 110.753 24.7319 114.422 24.7319C118.053 24.7319 120.542 26.7685 120.626 29.7336H118.03C117.875 28.0186 116.457 26.9834 114.385 26.9834C112.313 26.9834 110.896 28.0308 110.896 29.5552C110.896 30.7702 111.801 31.4851 114.016 32.0324L115.91 32.4973C119.435 33.3311 120.9 34.7474 120.9 37.2611C120.9 40.4761 118.339 42.4898 114.266 42.4898C110.455 42.4898 107.882 40.5234 107.716 37.4151L110.348 37.4152Z" fill="white"/>
<path d="M126.451 26.7092V29.6743H128.833V31.7109H126.451V38.6181C126.451 39.6911 126.928 40.1912 127.975 40.1912C128.258 40.1862 128.541 40.1664 128.821 40.1317V42.1561C128.35 42.2441 127.872 42.2839 127.393 42.275C124.856 42.275 123.867 41.3223 123.867 38.8924V31.7109H122.045V29.6743H123.867V26.7092H126.451Z" fill="white"/>
<path d="M130.213 35.9395C130.213 31.9973 132.535 29.5201 136.155 29.5201C139.788 29.5201 142.099 31.9973 142.099 35.9395C142.099 39.8924 139.8 42.3588 136.155 42.3588C132.512 42.3588 130.213 39.8924 130.213 35.9395ZM139.479 35.9395C139.479 33.2352 138.239 31.6392 136.155 31.6392C134.071 31.6392 132.834 33.2474 132.834 35.9395C132.834 38.6545 134.071 40.2384 136.155 40.2384C138.239 40.2384 139.479 38.6545 139.479 35.9395H139.479Z" fill="white"/>
<path d="M144.219 29.6742H146.672V31.8067H146.732C146.898 31.1407 147.288 30.5521 147.837 30.1398C148.386 29.7276 149.06 29.5169 149.746 29.5431C150.042 29.542 150.337 29.5742 150.627 29.639V32.0446C150.253 31.9303 149.862 31.8778 149.471 31.8892C149.098 31.874 148.725 31.9399 148.379 32.0823C148.034 32.2247 147.723 32.4402 147.468 32.714C147.214 32.9879 147.021 33.3136 146.904 33.6688C146.788 34.024 146.749 34.4003 146.791 34.7718V42.2033H144.219L144.219 29.6742Z" fill="white"/>
<path d="M162.484 38.5234C162.138 40.7979 159.923 42.3588 157.089 42.3588C153.444 42.3588 151.182 39.9167 151.182 35.9989C151.182 32.069 153.457 29.5201 156.981 29.5201C160.448 29.5201 162.627 31.9014 162.627 35.7003V36.5814H153.778V36.7368C153.737 37.1979 153.795 37.6624 153.948 38.0995C154.1 38.5366 154.344 38.9362 154.663 39.2719C154.981 39.6075 155.368 39.8715 155.797 40.0463C156.225 40.2211 156.686 40.3027 157.149 40.2857C157.756 40.3426 158.366 40.2019 158.888 39.8843C159.409 39.5668 159.814 39.0895 160.042 38.5234L162.484 38.5234ZM153.79 34.784H160.054C160.077 34.3694 160.015 33.9545 159.87 33.5653C159.725 33.1762 159.501 32.8212 159.213 32.5226C158.924 32.224 158.577 31.9882 158.193 31.8302C157.809 31.6721 157.396 31.5951 156.981 31.6041C156.562 31.6016 156.147 31.682 155.76 31.8408C155.372 31.9996 155.02 32.2336 154.723 32.5292C154.427 32.8248 154.191 33.1763 154.031 33.5633C153.871 33.9503 153.789 34.3652 153.79 34.784V34.784Z" fill="white"/>
<path d="M63.457 12.0832C63.9962 12.0445 64.5372 12.126 65.0411 12.3217C65.545 12.5174 65.9991 12.8226 66.3708 13.2151C66.7425 13.6076 67.0224 14.0777 67.1905 14.5914C67.3585 15.1052 67.4103 15.6499 67.3424 16.1862C67.3424 18.8242 65.9166 20.3406 63.457 20.3406H60.4744V12.0832H63.457ZM61.7569 19.1728H63.3137C63.699 19.1958 64.0846 19.1327 64.4423 18.9879C64.8001 18.8431 65.1211 18.6204 65.382 18.3359C65.6428 18.0514 65.837 17.7124 65.9503 17.3434C66.0635 16.9744 66.0931 16.5848 66.0369 16.203C66.089 15.8227 66.0565 15.4355 65.9414 15.0692C65.8264 14.703 65.6318 14.3667 65.3715 14.0845C65.1113 13.8023 64.7918 13.5811 64.4361 13.4369C64.0803 13.2926 63.697 13.2288 63.3137 13.2501H61.7569V19.1728Z" fill="white"/>
<path d="M68.7912 17.222C68.7521 16.8125 68.7989 16.3993 68.9288 16.009C69.0586 15.6186 69.2687 15.2597 69.5453 14.9553C69.822 14.6509 70.1593 14.4076 70.5355 14.2412C70.9117 14.0747 71.3186 13.9888 71.7299 13.9888C72.1413 13.9888 72.5482 14.0747 72.9244 14.2412C73.3006 14.4076 73.6378 14.6509 73.9145 14.9553C74.1912 15.2597 74.4013 15.6186 74.5311 16.009C74.661 16.3993 74.7078 16.8125 74.6686 17.222C74.7086 17.6319 74.6623 18.0457 74.5328 18.4367C74.4032 18.8277 74.1933 19.1872 73.9166 19.4922C73.6398 19.7973 73.3023 20.041 72.9257 20.2078C72.5491 20.3746 72.1418 20.4608 71.7299 20.4608C71.3181 20.4608 70.9108 20.3746 70.5342 20.2078C70.1576 20.041 69.8201 19.7973 69.5433 19.4922C69.2665 19.1872 69.0567 18.8277 68.9271 18.4367C68.7976 18.0457 68.7513 17.6319 68.7912 17.222ZM73.4037 17.222C73.4037 15.8713 72.7969 15.0813 71.732 15.0813C70.663 15.0813 70.0616 15.8713 70.0616 17.222C70.0616 18.5836 70.663 19.3674 71.732 19.3674C72.7969 19.3674 73.4037 18.5782 73.4037 17.222H73.4037Z" fill="white"/>
<path d="M82.4812 20.3405H81.2054L79.9175 15.751H79.8202L78.5377 20.3405H77.2741L75.5564 14.109H76.8038L77.9201 18.864H78.012L79.2931 14.109H80.4729L81.7541 18.864H81.8514L82.9623 14.109H84.1921L82.4812 20.3405Z" fill="white"/>
<path d="M85.6367 14.109H86.8206V15.0989H86.9125C87.0684 14.7433 87.3313 14.4453 87.6647 14.2463C87.998 14.0473 88.3851 13.9572 88.7721 13.9887C89.0753 13.9659 89.3797 14.0116 89.6628 14.1224C89.946 14.2333 90.2006 14.4064 90.4077 14.629C90.6148 14.8516 90.7692 15.1179 90.8595 15.4083C90.9497 15.6987 90.9734 16.0056 90.9289 16.3064V20.3404H89.6991V16.6152C89.6991 15.6138 89.264 15.1158 88.3545 15.1158C88.1486 15.1062 87.9431 15.1412 87.752 15.2185C87.561 15.2958 87.3889 15.4134 87.2476 15.5634C87.1063 15.7134 86.999 15.8922 86.9333 16.0875C86.8675 16.2828 86.8447 16.49 86.8665 16.6949V20.3404H85.6367L85.6367 14.109Z" fill="white"/>
<path d="M92.8887 11.6764H94.1185V20.3404H92.8887V11.6764Z" fill="white"/>
<path d="M95.8281 17.2221C95.7889 16.8126 95.8358 16.3994 95.9657 16.009C96.0956 15.6187 96.3056 15.2598 96.5824 14.9553C96.8591 14.6509 97.1964 14.4076 97.5726 14.2412C97.9488 14.0748 98.3557 13.9888 98.7671 13.9888C99.1785 13.9888 99.5854 14.0748 99.9616 14.2412C100.338 14.4076 100.675 14.6509 100.952 14.9553C101.229 15.2598 101.439 15.6187 101.569 16.009C101.698 16.3994 101.745 16.8126 101.706 17.2221C101.746 17.6321 101.7 18.0458 101.57 18.4368C101.441 18.8278 101.231 19.1873 100.954 19.4924C100.677 19.7974 100.34 20.0411 99.9629 20.2079C99.5863 20.3747 99.179 20.4609 98.7671 20.4609C98.3552 20.4609 97.9479 20.3747 97.5713 20.2079C97.1947 20.0411 96.8572 19.7974 96.5804 19.4924C96.3036 19.1873 96.0937 18.8278 95.9641 18.4368C95.8345 18.0458 95.7882 17.6321 95.8281 17.2221ZM100.441 17.2221C100.441 15.8714 99.8337 15.0815 98.7688 15.0815C97.6998 15.0815 97.0985 15.8714 97.0985 17.2221C97.0985 18.5837 97.6999 19.3675 98.7688 19.3675C99.8337 19.3675 100.441 18.5783 100.441 17.2221H100.441Z" fill="white"/>
<path d="M103.001 18.5782C103.001 17.4565 103.836 16.8099 105.318 16.718L107.006 16.6207V16.0828C107.006 15.4247 106.571 15.053 105.731 15.053C105.044 15.053 104.568 15.3051 104.432 15.7456H103.241C103.367 14.6753 104.374 13.9888 105.787 13.9888C107.35 13.9888 108.231 14.7665 108.231 16.0828V20.3405H107.047V19.4648H106.95C106.752 19.7789 106.475 20.035 106.146 20.2069C105.817 20.3788 105.449 20.4603 105.078 20.4432C104.816 20.4704 104.552 20.4425 104.302 20.3613C104.052 20.28 103.821 20.1473 103.626 19.9716C103.43 19.7959 103.273 19.5811 103.166 19.3411C103.058 19.1011 103.002 18.8412 103.001 18.5782ZM107.006 18.0458V17.5248L105.485 17.6221C104.627 17.6795 104.237 17.9714 104.237 18.5208C104.237 19.0816 104.724 19.408 105.393 19.408C105.589 19.4279 105.787 19.4081 105.975 19.3498C106.163 19.2916 106.338 19.1961 106.488 19.069C106.639 18.9419 106.762 18.7858 106.851 18.61C106.94 18.4342 106.993 18.2423 107.006 18.0458Z" fill="white"/>
<path d="M109.847 17.222C109.847 15.253 110.859 14.0056 112.434 14.0056C112.823 13.9877 113.21 14.0809 113.548 14.2745C113.887 14.4681 114.163 14.7541 114.345 15.0989H114.437V11.6764H115.666V20.3404H114.488V19.3559H114.391C114.195 19.6984 113.909 19.9808 113.564 20.1724C113.219 20.3641 112.828 20.4577 112.434 20.4431C110.849 20.4432 109.847 19.1958 109.847 17.222ZM111.118 17.222C111.118 18.5437 111.741 19.3391 112.783 19.3391C113.819 19.3391 114.46 18.5323 114.46 17.2274C114.46 15.9287 113.812 15.1104 112.783 15.1104C111.747 15.1104 111.118 15.9111 111.118 17.222H111.118Z" fill="white"/>
<path d="M120.755 17.222C120.715 16.8125 120.762 16.3993 120.892 16.009C121.022 15.6186 121.232 15.2597 121.509 14.9553C121.785 14.6509 122.123 14.4076 122.499 14.2412C122.875 14.0747 123.282 13.9888 123.693 13.9888C124.105 13.9888 124.512 14.0747 124.888 14.2412C125.264 14.4076 125.601 14.6509 125.878 14.9553C126.155 15.2597 126.365 15.6186 126.494 16.009C126.624 16.3993 126.671 16.8125 126.632 17.222C126.672 17.6319 126.626 18.0457 126.496 18.4367C126.367 18.8277 126.157 19.1872 125.88 19.4922C125.603 19.7973 125.266 20.041 124.889 20.2078C124.513 20.3746 124.105 20.4608 123.693 20.4608C123.281 20.4608 122.874 20.3746 122.498 20.2078C122.121 20.041 121.783 19.7973 121.507 19.4922C121.23 19.1872 121.02 18.8277 120.891 18.4367C120.761 18.0457 120.715 17.6319 120.755 17.222ZM125.367 17.222C125.367 15.8713 124.76 15.0813 123.695 15.0813C122.626 15.0813 122.025 15.8713 122.025 17.222C122.025 18.5836 122.626 19.3674 123.695 19.3674C124.76 19.3674 125.367 18.5782 125.367 17.222Z" fill="white"/>
<path d="M128.282 14.109H129.466V15.0989H129.558C129.714 14.7433 129.977 14.4453 130.31 14.2463C130.643 14.0473 131.03 13.9572 131.417 13.9887C131.721 13.9659 132.025 14.0116 132.308 14.1224C132.591 14.2333 132.846 14.4064 133.053 14.629C133.26 14.8516 133.415 15.1179 133.505 15.4083C133.595 15.6987 133.619 16.0056 133.574 16.3064V20.3404H132.344V16.6152C132.344 15.6138 131.909 15.1158 131 15.1158C130.794 15.1062 130.588 15.1412 130.397 15.2185C130.206 15.2958 130.034 15.4134 129.893 15.5634C129.752 15.7134 129.644 15.8922 129.579 16.0875C129.513 16.2828 129.49 16.49 129.512 16.6949V20.3404H128.282V14.109Z" fill="white"/>
<path d="M140.523 12.5575V14.1373H141.873V15.1732H140.523V18.3775C140.523 19.0302 140.792 19.316 141.405 19.316C141.561 19.3155 141.718 19.3061 141.873 19.2876V20.312C141.653 20.3515 141.429 20.3726 141.205 20.3749C139.837 20.3749 139.292 19.8938 139.292 18.6923V15.1731H138.303V14.1373H139.292V12.5575H140.523Z" fill="white"/>
<path d="M143.553 11.6764H144.772V15.1104H144.87C145.033 14.7515 145.303 14.4518 145.643 14.252C145.983 14.0523 146.377 13.9622 146.77 13.9941C147.071 13.9777 147.373 14.0281 147.653 14.1416C147.933 14.2551 148.184 14.429 148.389 14.6509C148.594 14.8728 148.747 15.1372 148.838 15.4252C148.93 15.7133 148.956 16.0178 148.916 16.3172V20.3405H147.685V16.6206C147.685 15.6253 147.221 15.1212 146.352 15.1212C146.141 15.1039 145.928 15.1329 145.729 15.2063C145.53 15.2798 145.35 15.3958 145.2 15.5462C145.051 15.6967 144.936 15.878 144.864 16.0775C144.792 16.277 144.764 16.4898 144.783 16.701V20.3404H143.553L143.553 11.6764Z" fill="white"/>
<path d="M156.087 18.658C155.919 19.2275 155.557 19.7201 155.064 20.0497C154.57 20.3793 153.976 20.5248 153.386 20.4608C152.976 20.4716 152.568 20.393 152.191 20.2303C151.814 20.0677 151.476 19.8249 151.203 19.5189C150.929 19.2129 150.725 18.8509 150.605 18.4581C150.485 18.0654 150.452 17.6512 150.508 17.2444C150.453 16.8363 150.487 16.4212 150.606 16.0273C150.726 15.6333 150.929 15.2697 151.201 14.961C151.474 14.6523 151.81 14.4057 152.186 14.238C152.562 14.0702 152.969 13.9852 153.381 13.9888C155.115 13.9888 156.161 15.1733 156.161 17.1301V17.5593H151.761V17.6282C151.741 17.8569 151.77 18.087 151.845 18.304C151.92 18.5209 152.039 18.7198 152.195 18.8878C152.352 19.0559 152.541 19.1895 152.752 19.28C152.963 19.3705 153.191 19.4159 153.42 19.4134C153.714 19.4487 154.012 19.3957 154.276 19.2612C154.54 19.1267 154.758 18.9167 154.903 18.6579L156.087 18.658ZM151.761 16.6497H154.908C154.924 16.4406 154.895 16.2305 154.825 16.033C154.754 15.8355 154.643 15.6549 154.499 15.5029C154.354 15.3509 154.179 15.2308 153.986 15.1502C153.792 15.0697 153.584 15.0306 153.374 15.0354C153.161 15.0328 152.95 15.0727 152.753 15.1529C152.556 15.2331 152.377 15.3519 152.227 15.5023C152.077 15.6528 151.958 15.8318 151.878 16.0289C151.798 16.2259 151.758 16.437 151.761 16.6497H151.761Z" fill="white"/>
</g>
<defs>
<clipPath id="clip0_195_698">
<rect width="186.823" height="55.3549" fill="white" transform="translate(0 0.000671387)"/>
</clipPath>
</defs>
</svg>
