<svg width="36" height="31" viewBox="0 0 36 31" fill="none" xmlns="http://www.w3.org/2000/svg">
<path d="M9.6853 17.7679C11.4872 17.7679 12.9137 18.3694 13.9649 19.5724C15.0911 20.7002 15.6542 22.2039 15.6542 24.0836C15.6542 26.1137 14.9784 27.7303 13.627 28.9333C12.3506 30.0611 10.5863 30.625 8.33387 30.625C5.70607 30.625 3.64137 29.61 2.13978 27.5799C0.713259 25.5498 0 22.6551 0 18.8957C0 15.5122 0.750799 12.3919 2.2524 9.53477C3.75399 6.60244 6.00639 3.67011 9.00959 0.737781C9.08467 0.662594 9.19728 0.625 9.34744 0.625C9.57268 0.625 9.76038 0.737781 9.91054 0.963342C10.0607 1.18891 10.0607 1.37688 9.91054 1.52725C6.23163 5.28665 4.39217 9.72274 4.39217 14.8355C4.39217 16.9408 4.76757 18.4821 5.51837 19.4596C6.19409 18.3318 7.58307 17.7679 9.6853 17.7679ZM29.2811 17.7679C31.0831 17.7679 32.5096 18.3694 33.5607 19.5724C34.6869 20.7002 35.25 22.2039 35.25 24.0836C35.25 26.1137 34.5743 27.7303 33.2228 28.9333C31.9465 30.0611 30.1821 30.625 27.9297 30.625C25.3019 30.625 23.2372 29.61 21.7356 27.5799C20.3091 25.5498 19.5958 22.6551 19.5958 18.8957C19.5958 15.5122 20.3466 12.3919 21.8482 9.53477C23.3498 6.60244 25.6022 3.67011 28.6054 0.737781C28.6805 0.662594 28.7931 0.625 28.9433 0.625C29.1685 0.625 29.3562 0.737781 29.5064 0.963342C29.6565 1.18891 29.6565 1.37688 29.5064 1.52725C25.8275 5.28665 23.988 9.72274 23.988 14.8355C23.988 16.9408 24.3634 18.4821 25.1142 19.4596C25.7899 18.3318 27.1789 17.7679 29.2811 17.7679Z" fill="white"/>
</svg>
