<svg width="187" height="56" viewBox="0 0 187 56" fill="none" xmlns="http://www.w3.org/2000/svg">
<g clip-path="url(#clip0_195_699)">
<path d="M180.081 0.000671387H7.0966C3.27515 0.000671387 0.177246 3.09857 0.177246 6.92003V48.4362C0.177246 52.2576 3.27515 55.3555 7.0966 55.3555H180.081C183.902 55.3555 187 52.2576 187 48.4362V6.92003C187 3.09857 183.902 0.000671387 180.081 0.000671387Z" fill="black"/>
<path d="M180.081 1.10767C181.622 1.10946 183.099 1.72243 184.188 2.81212C185.278 3.90181 185.891 5.37922 185.893 6.92021V48.4364C185.891 49.9773 185.278 51.4547 184.188 52.5444C183.099 53.6341 181.622 54.2471 180.081 54.2489H7.0966C5.55559 54.2471 4.07821 53.6341 2.98858 52.5445C1.89895 51.4548 1.28605 49.9774 1.28434 48.4364V6.92021C1.28602 5.37919 1.89891 3.90177 2.98855 2.81208C4.07819 1.72239 5.55558 1.10943 7.0966 1.10767H180.081ZM180.081 0.000854492H7.0966C5.26313 0.00622128 3.50628 0.736946 2.20981 2.03342C0.913338 3.32989 0.182613 5.08673 0.177246 6.92021L0.177246 48.4364C0.182613 50.2698 0.913338 52.0267 2.20981 53.3231C3.50628 54.6196 5.26313 55.3503 7.0966 55.3557H180.081C181.914 55.3503 183.671 54.6196 184.967 53.3231C186.264 52.0267 186.995 50.2698 187 48.4364V6.92021C186.995 5.08673 186.264 3.32989 184.967 2.03342C183.671 0.736946 181.914 0.00622128 180.081 0.000854492Z" fill="#A6A6A6"/>
<path d="M65.7981 14.1761C65.8233 14.6839 65.7448 15.1915 65.5675 15.668C65.3902 16.1445 65.1178 16.58 64.7669 16.9478C64.3736 17.3557 63.8986 17.676 63.3729 17.8877C62.8473 18.0994 62.2829 18.1977 61.7167 18.1763C61.1468 18.1814 60.5817 18.0725 60.0545 17.8561C59.5274 17.6397 59.0488 17.3201 58.6469 16.916C58.245 16.512 57.9279 16.0317 57.7143 15.5034C57.5007 14.975 57.3949 14.4093 57.403 13.8395C57.3949 13.2697 57.5008 12.704 57.7144 12.1757C57.9281 11.6473 58.2451 11.167 58.647 10.7629C59.0488 10.3588 59.5274 10.0391 60.0546 9.82262C60.5817 9.6061 61.1468 9.49711 61.7167 9.50205C62.3026 9.50028 62.8826 9.61874 63.4209 9.8501C63.9209 10.0528 64.3659 10.3706 64.7197 10.7778L63.9898 11.5083C63.7117 11.1809 63.3621 10.9218 62.968 10.751C62.5738 10.5802 62.1457 10.5022 61.7167 10.5231C61.2848 10.5208 60.8569 10.6058 60.4587 10.7728C60.0604 10.9399 59.6999 11.1856 59.3989 11.4953C59.0978 11.8049 58.8623 12.1721 58.7065 12.575C58.5508 12.9778 58.4779 13.4079 58.4923 13.8395C58.482 14.4861 58.6639 15.1211 59.015 15.6641C59.3661 16.2071 59.8705 16.6336 60.4643 16.8896C61.0581 17.1455 61.7146 17.2194 62.3504 17.1018C62.9862 16.9841 63.5728 16.6803 64.0358 16.2289C64.4619 15.7698 64.7088 15.1729 64.7317 14.547H61.7167V13.5496H65.74C65.7781 13.7563 65.7975 13.9659 65.7981 14.1761Z" fill="white" stroke="white" stroke-width="0.276774" stroke-miterlimit="10"/>
<path d="M72.1772 10.7083H68.3959V13.3408H71.8056V14.3383H68.3959V16.9708H72.1772V17.9912H67.3296V9.68793H72.1772V10.7083Z" fill="white" stroke="white" stroke-width="0.276774" stroke-miterlimit="10"/>
<path d="M76.6758 17.9912H75.6081V10.7083H73.2891V9.68793H78.9949V10.7083H76.6758V17.9912Z" fill="white" stroke="white" stroke-width="0.276774" stroke-miterlimit="10"/>
<path d="M83.1238 17.9912V9.68793H84.1901V17.9912H83.1238Z" fill="white" stroke="white" stroke-width="0.276774" stroke-miterlimit="10"/>
<path d="M88.9227 17.9912H87.8551V10.7083H85.5361V9.68793H91.2418V10.7083H88.9227V17.9912Z" fill="white" stroke="white" stroke-width="0.276774" stroke-miterlimit="10"/>
<path d="M102.043 16.918C101.235 17.7238 100.14 18.1763 98.9987 18.1763C97.8575 18.1763 96.7628 17.7238 95.9546 16.918C95.5548 16.5131 95.2405 16.0319 95.0304 15.503C94.8203 14.9741 94.7187 14.4084 94.7316 13.8395C94.7187 13.2706 94.8203 12.7048 95.0304 12.176C95.2405 11.6471 95.5548 11.1659 95.9546 10.7609C96.3541 10.3614 96.8284 10.0445 97.3505 9.82847C97.8726 9.61245 98.4321 9.50151 98.9971 9.50202C99.5622 9.50252 100.122 9.61444 100.643 9.83139C101.165 10.0483 101.639 10.366 102.037 10.7663C102.438 11.1702 102.752 11.6504 102.963 12.1783C103.174 12.7062 103.277 13.2711 103.266 13.8395C103.278 14.4084 103.177 14.974 102.967 15.5028C102.756 16.0316 102.442 16.5129 102.043 16.918ZM96.7425 16.2228C97.341 16.8203 98.1523 17.1559 98.998 17.1559C99.8438 17.1559 100.655 16.8203 101.254 16.2228C101.561 15.9085 101.801 15.5353 101.959 15.1257C102.118 14.716 102.192 14.2785 102.177 13.8395C102.192 13.4005 102.118 12.9629 101.959 12.5533C101.801 12.1436 101.561 11.7704 101.254 11.4562C100.655 10.8586 99.8438 10.523 98.998 10.523C98.1523 10.523 97.341 10.8586 96.7425 11.4562C96.4359 11.7707 96.1963 12.144 96.0379 12.5536C95.8795 12.9632 95.8056 13.4006 95.8208 13.8395C95.8056 14.2784 95.8795 14.7158 96.0379 15.1254C96.1963 15.535 96.4359 15.9083 96.7425 16.2228Z" fill="white" stroke="white" stroke-width="0.276774" stroke-miterlimit="10"/>
<path d="M104.764 17.9912V9.68793H106.062L110.098 16.1471H110.144L110.098 14.547V9.68793H111.165V17.9912H110.052L105.83 11.219H105.784L105.83 12.8192V17.9912H104.764Z" fill="white" stroke="white" stroke-width="0.276774" stroke-miterlimit="10"/>
<path d="M94.4685 30.1023C93.3054 30.1067 92.1696 30.4556 91.2046 31.1051C90.2396 31.7545 89.4887 32.6753 89.0466 33.7512C88.6045 34.827 88.4912 36.0098 88.7208 37.1501C88.9504 38.2903 89.5128 39.337 90.3368 40.1579C91.1609 40.9788 92.2096 41.5372 93.3508 41.7625C94.4919 41.9878 95.6742 41.8699 96.7484 41.4238C97.8226 40.9776 98.7406 40.2232 99.3863 39.2557C100.032 38.2883 100.377 37.1512 100.377 35.988C100.388 35.21 100.243 34.4377 99.9498 33.717C99.6566 32.9962 99.2215 32.3418 98.6703 31.7927C98.119 31.2436 97.463 30.8109 96.7412 30.5205C96.0193 30.2301 95.2464 30.0879 94.4685 30.1023ZM94.4685 39.5552C93.7522 39.6063 93.0371 39.4405 92.4163 39.0795C91.7955 38.7185 91.2978 38.1789 90.9879 37.531C90.6781 36.8832 90.5705 36.157 90.6791 35.4471C90.7878 34.7372 91.1076 34.0765 91.597 33.551C92.0864 33.0254 92.7227 32.6594 93.4231 32.5005C94.1234 32.3416 94.8554 32.3973 95.5237 32.6603C96.1919 32.9232 96.7655 33.3813 97.1698 33.9748C97.5741 34.5684 97.7903 35.2699 97.7903 35.988C97.8121 36.4417 97.7428 36.8952 97.5867 37.3217C97.4305 37.7482 97.1906 38.1392 96.8811 38.4716C96.5715 38.804 96.1986 39.0711 95.7843 39.2572C95.37 39.4433 94.9226 39.5446 94.4685 39.5552ZM81.58 30.1023C80.4168 30.1067 79.281 30.4556 78.316 31.105C77.351 31.7544 76.6 32.6752 76.158 33.7511C75.7159 34.8269 75.6025 36.0097 75.8321 37.15C76.0617 38.2903 76.624 39.3369 77.4481 40.1579C78.2721 40.9788 79.3209 41.5372 80.462 41.7625C81.6032 41.9878 82.7855 41.8699 83.8597 41.4238C84.9339 40.9776 85.8518 40.2232 86.4976 39.2557C87.1434 38.2883 87.488 37.1512 87.488 35.988C87.4994 35.2101 87.3542 34.4377 87.0611 33.717C86.768 32.9963 86.3328 32.3419 85.7816 31.7928C85.2304 31.2436 84.5744 30.811 83.8526 30.5206C83.1307 30.2302 82.3579 30.0879 81.58 30.1023ZM81.58 39.5552C80.8636 39.6063 80.1485 39.4405 79.5277 39.0795C78.9069 38.7185 78.4092 38.1789 78.0994 37.531C77.7896 36.8832 77.6819 36.157 77.7906 35.4471C77.8992 34.7372 78.2191 34.0765 78.7085 33.551C79.1979 33.0254 79.8342 32.6594 80.5345 32.5005C81.2349 32.3416 81.9668 32.3973 82.6351 32.6603C83.3034 32.9232 83.877 33.3813 84.2813 33.9748C84.6856 34.5684 84.9018 35.2699 84.9018 35.988C84.9236 36.4417 84.8543 36.8952 84.6982 37.3217C84.542 37.7482 84.3021 38.1392 83.9926 38.4716C83.683 38.804 83.3101 39.0711 82.8958 39.2572C82.4814 39.4433 82.034 39.5447 81.58 39.5552ZM66.2483 31.9082V34.4052H72.2235C72.1372 35.5763 71.658 36.6841 70.8634 37.5488C70.2646 38.1591 69.5445 38.6371 68.7496 38.952C67.9547 39.2669 67.1026 39.4116 66.2483 39.3769C64.5018 39.3532 62.8349 38.6428 61.6083 37.3994C60.3816 36.156 59.6938 34.4797 59.6938 32.733C59.6938 30.9864 60.3816 29.31 61.6083 28.0666C62.8349 26.8232 64.5018 26.1128 66.2483 26.0892C67.9259 26.0673 69.5443 26.7082 70.752 27.8727L72.5132 26.1115C71.6892 25.2957 70.7106 24.6526 69.6348 24.22C68.559 23.7874 67.4077 23.5739 66.2483 23.5921C65.0367 23.5745 63.8337 23.7979 62.7092 24.2494C61.5847 24.7008 60.5612 25.3713 59.6982 26.2219C58.8352 27.0724 58.1498 28.0861 57.6821 29.2039C57.2143 30.3217 56.9734 31.5213 56.9734 32.733C56.9734 33.9447 57.2143 35.1444 57.6821 36.2622C58.1498 37.38 58.8352 38.3936 59.6982 39.2442C60.5612 40.0947 61.5847 40.7652 62.7092 41.2167C63.8337 41.6681 65.0367 41.8915 66.2483 41.8739C67.4322 41.923 68.6129 41.7198 69.7122 41.2778C70.8116 40.8357 71.8043 40.165 72.6246 39.31C74.081 37.7203 74.8573 35.6237 74.7874 33.4688C74.7931 32.9455 74.7482 32.4229 74.6534 31.9082H66.2483ZM128.949 33.8477C128.595 32.7816 127.922 31.8503 127.021 31.1802C126.119 30.5101 125.033 30.1337 123.91 30.1023C123.154 30.107 122.407 30.265 121.713 30.5667C121.02 30.8684 120.395 31.3077 119.876 31.8578C119.357 32.408 118.955 33.0576 118.694 33.7675C118.434 34.4774 118.32 35.2328 118.359 35.988C118.342 36.7619 118.481 37.5312 118.768 38.2501C119.055 38.9689 119.484 39.6226 120.029 40.172C120.575 40.7214 121.225 41.1552 121.942 41.4477C122.658 41.7401 123.426 41.885 124.2 41.8739C125.17 41.8793 126.126 41.6437 126.982 41.1885C127.838 40.7332 128.568 40.0724 129.105 39.2654L127.099 37.9278C126.798 38.427 126.373 38.8395 125.865 39.1248C125.357 39.4101 124.783 39.5584 124.2 39.5552C123.601 39.5782 123.008 39.4204 122.499 39.1024C121.99 38.7843 121.589 38.3207 121.347 37.7717L129.217 34.5167L128.949 33.8477ZM120.923 35.8098C120.895 35.3814 120.953 34.9518 121.094 34.5461C121.234 34.1404 121.454 33.7667 121.74 33.447C122.027 33.1273 122.374 32.868 122.762 32.6841C123.15 32.5003 123.571 32.3957 124 32.3764C124.446 32.347 124.891 32.4497 125.28 32.6718C125.669 32.8938 125.983 33.2253 126.185 33.6249L120.923 35.8098ZM114.524 41.5171H117.111V24.2165H114.524V41.5171ZM110.288 31.4177H110.199C109.806 30.9905 109.326 30.6521 108.792 30.4253C108.257 30.1985 107.681 30.0883 107.1 30.1023C105.583 30.1669 104.148 30.8152 103.097 31.912C102.046 33.0087 101.46 34.469 101.46 35.9881C101.46 37.5072 102.046 38.9675 103.097 40.0642C104.148 41.161 105.583 41.8093 107.1 41.8739C107.683 41.8894 108.262 41.7778 108.797 41.5468C109.332 41.3158 109.811 40.9709 110.199 40.5363H110.288V41.3835C110.288 43.6353 109.085 44.8391 107.145 44.8391C106.498 44.8237 105.871 44.6161 105.343 44.2428C104.815 43.8696 104.41 43.3476 104.18 42.7434L101.928 43.6799C102.352 44.7132 103.076 45.5962 104.005 46.2158C104.934 46.8355 106.028 47.1635 107.145 47.1578C110.177 47.1578 112.741 45.3743 112.741 41.0267V30.4589H110.288V31.4177ZM107.323 39.5552C106.429 39.4794 105.597 39.0708 104.99 38.4102C104.383 37.7496 104.046 36.8852 104.046 35.9881C104.046 35.091 104.383 34.2266 104.99 33.566C105.597 32.9054 106.429 32.4968 107.323 32.421C107.768 32.4427 108.204 32.5537 108.605 32.7474C109.006 32.9412 109.363 33.2136 109.657 33.5486C109.95 33.8835 110.173 34.2741 110.312 34.697C110.451 35.12 110.504 35.5666 110.467 36.0103C110.502 36.4513 110.447 36.8947 110.306 37.3141C110.166 37.7335 109.942 38.1202 109.649 38.4511C109.355 38.7821 108.998 39.0504 108.599 39.2401C108.199 39.4298 107.765 39.537 107.323 39.5552ZM141.063 24.2168H134.876V41.5171H137.458V34.9626H141.063C141.794 35.0026 142.525 34.8933 143.211 34.6414C143.898 34.3895 144.526 34.0002 145.057 33.4974C145.588 32.9945 146.012 32.3886 146.301 31.7168C146.59 31.0449 146.739 30.3211 146.739 29.5897C146.739 28.8583 146.59 28.1345 146.301 27.4626C146.012 26.7908 145.588 26.1849 145.057 25.682C144.526 25.1792 143.898 24.7899 143.211 24.538C142.525 24.2861 141.794 24.1768 141.063 24.2168ZM141.13 32.5549H137.458V26.6246H141.13C141.525 26.6164 141.917 26.6871 142.284 26.8324C142.651 26.9778 142.985 27.1949 143.267 27.471C143.549 27.7472 143.773 28.0768 143.926 28.4406C144.079 28.8044 144.157 29.1951 144.157 29.5898C144.157 29.9844 144.079 30.3751 143.926 30.7389C143.773 31.1027 143.549 31.4324 143.267 31.7085C142.985 31.9847 142.651 32.2018 142.284 32.3471C141.917 32.4924 141.525 32.5631 141.13 32.5549ZM157.089 30.0705C156.146 30.0154 155.208 30.2367 154.39 30.7072C153.571 31.1777 152.908 31.8769 152.481 32.719L154.774 33.6761C155.001 33.2582 155.345 32.9155 155.764 32.6902C156.183 32.4649 156.659 32.3666 157.133 32.4074C157.788 32.3434 158.442 32.5418 158.951 32.959C159.46 33.3762 159.783 33.9782 159.848 34.6331V34.8112C159.019 34.3707 158.094 34.1413 157.155 34.1435C154.685 34.1435 152.17 35.5012 152.17 38.0385C152.194 38.5732 152.325 39.0977 152.555 39.5808C152.786 40.0639 153.111 40.4957 153.512 40.8507C153.913 41.2057 154.38 41.4765 154.888 41.6472C155.395 41.8179 155.932 41.885 156.465 41.8444C157.115 41.8827 157.764 41.746 158.343 41.4485C158.923 41.151 159.412 40.7036 159.759 40.1529H159.848V41.4884H162.341V34.8557C162.341 31.7842 160.049 30.0705 157.089 30.0705ZM156.777 39.5519C155.931 39.5519 154.751 39.1291 154.751 38.0829C154.751 36.7476 156.22 36.2356 157.489 36.2356C158.313 36.2137 159.128 36.4135 159.848 36.8143C159.754 37.5647 159.39 38.2554 158.826 38.7586C158.261 39.2619 157.533 39.5437 156.777 39.5519ZM171.422 30.4488L168.462 37.9494H168.373L165.301 30.4488H162.519L167.126 40.9319L164.5 46.7633H167.193L174.293 30.4488H171.422ZM148.163 41.5171H150.745V24.2168H148.163V41.5171Z" fill="white"/>
<path d="M14.6181 10.4324C14.1644 10.975 13.9352 11.6706 13.9777 12.3766V42.9825C13.9351 43.6885 14.1642 44.3842 14.6181 44.9267L14.7205 45.0265L31.8653 27.8818V27.4773L14.7205 10.332L14.6181 10.4324Z" fill="url(#paint0_linear_195_699)"/>
<path d="M37.58 33.5991L31.8655 27.8818V27.4773L37.5814 21.7614L37.7103 21.8348L44.4813 25.6821C46.4154 26.7809 46.4154 28.5789 44.4813 29.6783L37.7103 33.5256L37.58 33.5991Z" fill="url(#paint1_linear_195_699)"/>
<path d="M37.7104 33.5249L31.8656 27.6796L14.6184 44.9266C15.0125 45.2742 15.5157 45.4729 16.041 45.4885C16.5662 45.504 17.0803 45.3353 17.4942 45.0116L37.7104 33.5249Z" fill="url(#paint2_linear_195_699)"/>
<path d="M37.7104 21.8342L17.4942 10.3475C17.0803 10.0238 16.5662 9.85509 16.041 9.87061C15.5157 9.88613 15.0125 10.0849 14.6184 10.4325L31.8656 27.6797L37.7104 21.8342Z" fill="url(#paint3_linear_195_699)"/>
<path opacity="0.2" d="M37.5815 33.3962L17.4942 44.8094C17.0963 45.1124 16.6105 45.2777 16.1103 45.2804C15.6102 45.2831 15.1227 45.123 14.7215 44.8242L14.6184 44.9273L14.7208 45.0271L14.7215 45.0264C15.1226 45.3253 15.6101 45.4855 16.1103 45.4828C16.6106 45.4802 17.0963 45.3148 17.4942 45.0116L37.7104 33.5249L37.5815 33.3962Z" fill="black"/>
<path opacity="0.12" d="M14.6186 44.7252C14.1649 44.1826 13.9357 43.4871 13.9781 42.781V42.9832C13.9357 43.6892 14.1648 44.3848 14.6186 44.9274L14.7217 44.8243L14.6186 44.7252Z" fill="black"/>
<path opacity="0.12" d="M44.4814 29.4755L37.5815 33.3963L37.7104 33.525L44.4814 29.6777C44.8797 29.5048 45.2244 29.2283 45.4795 28.877C45.7346 28.5257 45.8909 28.1124 45.9321 27.6802C45.8465 28.0716 45.6708 28.4377 45.419 28.7493C45.1671 29.061 44.8461 29.3096 44.4814 29.4755Z" fill="black"/>
<path opacity="0.25" d="M17.4941 10.5503L44.4812 25.8836C44.8461 26.0494 45.1672 26.2981 45.4191 26.6099C45.6709 26.9217 45.8465 27.288 45.9319 27.6796C45.8911 27.2472 45.7349 26.8336 45.4797 26.4822C45.2245 26.1307 44.8797 25.8542 44.4812 25.6814L17.4941 10.3481C15.56 9.24917 13.9778 10.162 13.9778 12.3773V12.5795C13.9778 10.3643 15.56 9.45149 17.4941 10.5503Z" fill="white"/>
</g>
<defs>
<linearGradient id="paint0_linear_195_699" x1="30.3449" y1="12.0539" x2="7.12023" y2="35.2786" gradientUnits="userSpaceOnUse">
<stop stop-color="#00A0FF"/>
<stop offset="0.00657" stop-color="#00A1FF"/>
<stop offset="0.2601" stop-color="#00BEFF"/>
<stop offset="0.5122" stop-color="#00D2FF"/>
<stop offset="0.7604" stop-color="#00DFFF"/>
<stop offset="1" stop-color="#00E3FF"/>
</linearGradient>
<linearGradient id="paint1_linear_195_699" x1="46.9995" y1="27.6802" x2="13.5141" y2="27.6802" gradientUnits="userSpaceOnUse">
<stop stop-color="#FFE000"/>
<stop offset="0.4087" stop-color="#FFBD00"/>
<stop offset="0.7754" stop-color="#FFA500"/>
<stop offset="1" stop-color="#FF9C00"/>
</linearGradient>
<linearGradient id="paint2_linear_195_699" x1="34.5345" y1="30.8557" x2="3.03993" y2="62.3502" gradientUnits="userSpaceOnUse">
<stop stop-color="#FF3A44"/>
<stop offset="1" stop-color="#C31162"/>
</linearGradient>
<linearGradient id="paint3_linear_195_699" x1="10.2757" y1="0.244651" x2="24.3393" y2="14.3083" gradientUnits="userSpaceOnUse">
<stop stop-color="#32A071"/>
<stop offset="0.0685" stop-color="#2DA771"/>
<stop offset="0.4762" stop-color="#15CF74"/>
<stop offset="0.8009" stop-color="#06E775"/>
<stop offset="1" stop-color="#00F076"/>
</linearGradient>
<clipPath id="clip0_195_699">
<rect width="186.823" height="55.3551" fill="white" transform="translate(0.177246 0.000671387)"/>
</clipPath>
</defs>
</svg>
