<svg width="112" height="112" viewBox="0 0 112 112" fill="none" xmlns="http://www.w3.org/2000/svg">
<g clip-path="url(#clip0_199_1041)">
<path d="M108.377 61.1598L65.7095 14.9455C63.3174 12.3546 59.7484 11.2097 56.2959 11.9136L51.232 12.9522L32.573 16.7725L32.2105 16.8454C32.0266 16.8826 31.8465 16.9248 31.6684 16.9725C31.575 16.9975 31.4798 17.026 31.3843 17.0547C29.4 17.6381 27.6708 18.8107 26.4039 20.3842C25.5841 21.3983 24.9548 22.5794 24.5744 23.876L17.6131 47.6372C16.621 51.0289 17.4762 54.6955 19.876 57.2936L62.5277 103.491C64.7056 105.848 67.6367 107.091 70.6057 107.196C73.0273 107.284 75.4762 106.612 77.5658 105.167C78.011 104.86 78.4407 104.517 78.8522 104.14L82.6582 100.625L107.724 77.4825C112.413 73.1546 112.704 65.8457 108.377 61.1598ZM43.2115 41.936C43.1149 42.0953 43.0191 42.2485 42.9167 42.3971C42.8737 42.4632 42.8253 42.5307 42.778 42.5919C42.6237 42.7969 42.4581 42.9928 42.2856 43.1756C42.2271 43.2397 42.1705 43.3004 42.1095 43.3562C42.0511 43.4203 41.988 43.4798 41.9265 43.5325C39.8276 45.453 36.649 45.8894 34.0522 44.3903C30.8413 42.5341 29.7438 38.438 31.5979 35.2308C33.2849 32.3048 36.8397 31.134 39.89 32.3572C40.0938 32.4389 40.3006 32.532 40.5049 32.6381C40.5875 32.6857 40.6712 32.7269 40.7575 32.7767C43.9638 34.6277 45.0614 38.7239 43.2115 41.936Z" fill="#E8E8E8"/>
<path d="M62.5278 103.491C64.7058 105.848 67.6368 107.091 70.6058 107.196C73.0274 107.284 75.4763 106.612 77.566 105.167C78.0111 104.86 78.4409 104.517 78.8523 104.14L82.6583 100.625L107.724 77.4827C112.413 73.155 112.704 65.8461 108.378 61.1601L88.4449 39.5706L63.746 25.3106C62.8402 24.6685 61.8239 24.1691 60.7258 23.8507L55.7581 22.4126L37.1098 17.0155C35.5801 16.5729 33.9998 16.5103 32.4884 16.7894L32.2361 16.8402C32.1583 16.8566 32.0808 16.8758 32.0033 16.894C31.905 16.9163 31.8059 16.9376 31.7094 16.963C31.5358 17.0096 31.364 17.0633 31.1926 17.1192C31.1231 17.1412 31.0544 17.1653 30.9857 17.1887C29.5325 17.6978 28.1894 18.539 27.0797 19.686L26.4007 20.3881C25.5825 21.4014 24.9542 22.5811 24.5742 23.876L17.613 47.6372C16.6208 51.0289 17.476 54.6955 19.8759 57.2936L62.5278 103.491ZM31.5978 35.2308C33.2847 32.3048 36.8395 31.134 39.8899 32.3571C40.0936 32.4389 40.3004 32.532 40.5048 32.6381C40.5873 32.6857 40.6711 32.7269 40.7573 32.7767C43.964 34.6281 45.0614 38.7238 43.2116 41.9362C43.115 42.0955 43.0192 42.2486 42.9168 42.3972C42.8739 42.4633 42.8254 42.5309 42.7781 42.592C42.6238 42.7971 42.4582 42.993 42.2857 43.1757C42.2272 43.2399 42.1706 43.3006 42.1097 43.3563C42.0512 43.4204 41.9881 43.4799 41.9266 43.5326C39.8278 45.4531 36.6491 45.8895 34.0523 44.3904C30.8415 42.5343 29.7439 38.4381 31.5978 35.2308Z" fill="url(#paint0_linear_199_1041)"/>
<path d="M65.922 28.4275L61.4958 25.7526L44.8798 15.7131C41.6904 13.787 37.6965 13.7802 34.5005 15.6967L13.2671 28.4341C10.2361 30.2512 8.37939 33.5263 8.37939 37.062V99.9391C8.37939 106.318 13.5509 111.489 19.9327 111.489H59.23C65.6088 111.489 70.78 106.318 70.78 99.9391V37.0388C70.7802 33.513 68.9364 30.2512 65.922 28.4275ZM34.8403 41.3628C32.2214 38.7407 32.2214 34.4993 34.8403 31.8807C37.2281 29.4928 40.9648 29.2819 43.5935 31.2507C43.7716 31.3826 43.9464 31.5278 44.1146 31.6827C44.1837 31.7486 44.2531 31.8113 44.3224 31.8807C46.9411 34.4993 46.9411 38.7409 44.3224 41.3628C44.1905 41.4915 44.0584 41.6168 43.9201 41.7323C43.8609 41.785 43.7981 41.838 43.7355 41.8841C43.5343 42.0425 43.3234 42.1908 43.1088 42.3227C43.0364 42.3689 42.9636 42.412 42.8911 42.4513C42.8187 42.4975 42.7426 42.5371 42.6702 42.5734C40.1436 43.8859 36.961 43.4836 34.8403 41.3628Z" fill="#BB2028"/>
<path d="M70.7805 99.939C70.7805 99.939 70.7805 99.661 70.7805 99.1478L32.0355 60.4124C30.5322 59.2104 28.542 58.6084 26.064 58.6084C20.6209 58.6084 17.8992 61.1159 17.8992 66.131V75.1824C17.8992 77.8973 18.704 79.8709 20.2993 81.116L50.6725 111.489H59.2305C65.609 111.489 70.7805 106.318 70.7805 99.939Z" fill="url(#paint1_linear_199_1041)"/>
<path d="M52.4174 56.8957C51.8829 56.4474 51.2879 56.2228 50.6304 56.2228C49.7359 56.2228 49.1263 56.5898 48.8012 57.3237L26.4307 102.261C26.2684 102.547 26.1873 102.852 26.1873 103.178C26.1873 103.749 26.4128 104.268 26.8645 104.738L33.6156 111.489H59.2301C65.6089 111.489 70.7801 106.317 70.7801 99.9389C70.7801 99.9389 70.7801 91.7364 70.7801 81.5188V75.3487L52.4174 56.8957Z" fill="url(#paint2_linear_199_1041)"/>
<path d="M59.0064 81.0227C57.5031 79.8206 55.5127 79.2186 53.035 79.2186C47.5918 79.2186 44.8701 81.7262 44.8701 86.7412V95.7927C44.8701 98.5076 45.6749 100.481 47.2702 101.726L57.0328 111.489H59.23C65.6087 111.489 70.78 106.317 70.78 99.9389C70.78 99.9389 70.78 97.1461 70.78 92.7938L59.0064 81.0227Z" fill="url(#paint3_linear_199_1041)"/>
<path d="M17.8992 75.1821V66.1306C17.8992 61.1156 20.6209 58.608 26.064 58.608C28.5418 58.608 30.5324 59.21 32.0355 60.4121C33.5376 61.6152 34.2897 63.5218 34.2897 66.1304V75.1818C34.2897 77.7915 33.5378 79.6979 32.0355 80.9002C30.5322 82.1033 28.5418 82.7042 26.064 82.7042C20.6209 82.7044 17.8992 80.1969 17.8992 75.1821ZM22.2414 75.0799C22.2414 77.4317 23.5154 78.607 26.0638 78.607C28.6523 78.607 29.947 77.4317 29.947 75.0799V66.2328C29.947 63.8821 28.6523 62.7059 26.0638 62.7059C23.5151 62.7059 22.2414 63.8821 22.2414 66.2328C22.2416 66.2328 22.2416 75.0799 22.2414 75.0799ZM26.1874 103.178C26.1874 102.852 26.2685 102.547 26.4309 102.261L48.8015 57.3237C49.1266 56.5898 49.7363 56.2228 50.6307 56.2228C51.2881 56.2228 51.8833 56.4474 52.4177 56.8957C52.9519 57.3447 53.2194 57.8951 53.2194 58.5468C53.2194 58.8738 53.1582 59.1995 53.0368 59.5252L30.6643 104.279C30.2979 105.053 29.6073 105.441 28.5915 105.441C27.8923 105.441 27.317 105.206 26.8646 104.738C26.4129 104.269 26.1874 103.749 26.1874 103.178ZM44.8704 95.9187V86.7983C44.8704 81.7452 47.5921 79.2187 53.0352 79.2187C55.513 79.2187 57.5036 79.8255 59.0067 81.0371C60.5088 82.2488 61.2609 84.1696 61.2609 86.7983V95.9187C61.2609 98.5485 60.5088 100.469 59.0067 101.681C57.5034 102.893 55.513 103.498 53.0352 103.498C47.5919 103.498 44.8704 100.972 44.8704 95.9187ZM49.2126 95.8336C49.2126 98.2118 50.4866 99.401 53.035 99.401C55.6235 99.401 56.9183 98.2123 56.9183 95.8336V86.8832C56.9183 84.5058 55.6235 83.3158 53.035 83.3158C50.4864 83.3158 49.2126 84.5056 49.2126 86.8832V95.8336Z" fill="url(#paint4_linear_199_1041)"/>
<path d="M70.78 37.0381V58.4192L44.8687 32.5078C44.7018 32.291 44.5202 32.0801 44.324 31.8811C44.2538 31.8108 44.1833 31.7494 44.1159 31.6818C44.0691 31.6378 44.0221 31.5967 43.9724 31.5588C43.8495 31.4475 43.7204 31.3451 43.5947 31.2515C41.0878 29.3742 37.5766 29.4768 35.187 31.5621V15.3204C37.9485 13.9438 41.1904 13.9118 43.9727 15.2265C44.28 15.37 44.5847 15.5339 44.8805 15.7128L61.4969 25.7517L65.9218 28.4283C68.9351 30.2498 70.78 33.5121 70.78 37.0381Z" fill="url(#paint5_linear_199_1041)"/>
<path d="M39.5797 39.545C37.1538 39.545 35.187 37.5782 35.187 35.1522V4.39272C35.187 1.96678 37.1538 0 39.5797 0C42.0057 0 43.9724 1.96678 43.9724 4.39272V35.152C43.9727 37.5782 42.0057 39.545 39.5797 39.545Z" fill="#A8151C"/>
</g>
<defs>
<linearGradient id="paint0_linear_199_1041" x1="51.4729" y1="11.6674" x2="101.241" y2="85.2643" gradientUnits="userSpaceOnUse">
<stop stop-color="white"/>
<stop offset="1" stop-color="white" stop-opacity="0"/>
</linearGradient>
<linearGradient id="paint1_linear_199_1041" x1="41.4196" y1="86.0432" x2="23.1003" y2="67.7239" gradientUnits="userSpaceOnUse">
<stop stop-color="#BB2028" stop-opacity="0"/>
<stop offset="1" stop-color="#BB2028"/>
</linearGradient>
<linearGradient id="paint2_linear_199_1041" x1="60.87" y1="102.047" x2="32.6664" y2="73.8438" gradientUnits="userSpaceOnUse">
<stop stop-color="#BB2028" stop-opacity="0"/>
<stop offset="1" stop-color="#890209"/>
</linearGradient>
<linearGradient id="paint3_linear_199_1041" x1="73.7036" y1="111.971" x2="45.7877" y2="84.0532" gradientUnits="userSpaceOnUse">
<stop stop-color="#BB2028" stop-opacity="0"/>
<stop offset="1" stop-color="#890209"/>
</linearGradient>
<linearGradient id="paint4_linear_199_1041" x1="39.5791" y1="67.706" x2="39.5791" y2="122.653" gradientUnits="userSpaceOnUse">
<stop stop-color="white"/>
<stop offset="1" stop-color="#E2EDF2"/>
</linearGradient>
<linearGradient id="paint5_linear_199_1041" x1="68.0448" y1="42.7516" x2="23.2853" y2="17.8311" gradientUnits="userSpaceOnUse">
<stop stop-color="#BB2028"/>
<stop offset="1" stop-color="#890209"/>
</linearGradient>
<clipPath id="clip0_199_1041">
<rect width="112" height="112" fill="white"/>
</clipPath>
</defs>
</svg>
