<svg width="104" height="103" viewBox="0 0 104 103" fill="none" xmlns="http://www.w3.org/2000/svg">
<g clip-path="url(#clip0_199_1043)">
<path d="M87.3102 51.8787C87.3102 56.0084 86.6792 59.9936 85.5046 63.7375C85.3775 64.1554 85.2403 64.5684 85.0931 64.9788C84.6293 66.3173 84.0908 67.6208 83.4872 68.8896C82.9809 69.9594 82.4271 71.0016 81.8263 72.0141C80.6294 74.0466 79.2577 75.9621 77.7265 77.7408C76.1255 79.604 74.3547 81.3182 72.4394 82.8606C65.6039 88.3509 56.9127 91.6397 47.4511 91.6397C25.438 91.6397 7.59204 73.8377 7.59204 51.8787C7.59204 29.9197 25.4376 12.1177 47.4509 12.1177C69.4642 12.1177 87.3102 29.9197 87.3102 51.8787Z" fill="url(#paint0_linear_199_1043)"/>
<path d="M47.6204 24.9927C46.0593 24.9927 44.7937 47.7309 44.7937 49.304C44.7937 50.3063 45.3088 51.1862 46.0856 51.6937L75.2056 81.0368C80.1182 76.2719 83.8169 70.2467 85.7916 63.4772C79.2891 56.9725 47.6204 24.9927 47.6204 24.9927Z" fill="url(#paint1_linear_199_1043)"/>
<path d="M47.8309 54.5293C49.0888 54.5293 50.1085 53.5121 50.1085 52.2573C50.1085 51.0025 49.0888 49.9852 47.8309 49.9852C46.573 49.9852 45.5532 51.0025 45.5532 52.2573C45.5532 53.5121 46.573 54.5293 47.8309 54.5293Z" fill="url(#paint2_linear_199_1043)"/>
<path d="M47.4516 20.4485C47.1371 20.4485 46.8524 20.5575 46.6462 20.7338C46.4402 20.9099 46.3125 21.1533 46.3125 21.4224V28.563C46.3125 28.7646 46.3841 28.9519 46.5069 29.1073C46.5887 29.211 46.6933 29.3004 46.8145 29.3703C46.875 29.4054 46.9399 29.4354 47.008 29.4601C47.1442 29.5093 47.2941 29.5367 47.4511 29.5367C47.7656 29.5367 48.0503 29.4277 48.2565 29.2514C48.4625 29.0751 48.5902 28.8319 48.5902 28.5628V21.4222C48.5904 20.8844 48.0803 20.4485 47.4516 20.4485Z" fill="url(#paint3_linear_199_1043)"/>
<path d="M47.4514 74.2206C46.8224 74.2206 46.3125 74.6931 46.3125 75.2755V83.0113C46.3125 83.1118 46.3324 83.207 46.3608 83.2989C46.4966 83.7406 46.9309 84.0662 47.4512 84.0662C47.6085 84.0662 47.7584 84.0364 47.8944 83.9832C48.3031 83.823 48.5902 83.448 48.5902 83.0111V75.2753C48.5904 74.6929 48.0803 74.2206 47.4514 74.2206Z" fill="url(#paint4_linear_199_1043)"/>
<path d="M78.6607 50.7426H70.9059C70.3218 50.7426 69.8484 51.2511 69.8484 51.8786C69.8484 52.506 70.3218 53.0146 70.9059 53.0146H78.6607C79.2448 53.0146 79.7182 52.506 79.7182 51.8786C79.7185 51.2511 79.2448 50.7426 78.6607 50.7426Z" fill="url(#paint5_linear_199_1043)"/>
<path d="M25.054 51.8785C25.054 51.6433 24.9926 51.4245 24.8874 51.2433C24.8173 51.1223 24.7276 51.018 24.6237 50.9365C24.468 50.814 24.2802 50.7426 24.0779 50.7426H16.9197C16.6501 50.7426 16.4061 50.8697 16.2293 51.0754C16.0528 51.281 15.9434 51.5648 15.9434 51.8787C15.9434 52.5061 16.3804 53.0146 16.9195 53.0146H24.0775C24.347 53.0146 24.5911 52.8875 24.7678 52.6818C24.9446 52.4761 25.054 52.1924 25.054 51.8785Z" fill="url(#paint6_linear_199_1043)"/>
<path d="M64.8193 36.0751L70.2981 31.1562C70.7107 30.7858 70.7107 30.1851 70.2981 29.8146C69.8855 29.444 69.2164 29.4442 68.8038 29.8146L63.325 34.7335C62.9122 35.1042 62.9122 35.7046 63.325 36.0751C63.7376 36.4455 64.4067 36.4455 64.8193 36.0751Z" fill="url(#paint7_linear_199_1043)"/>
<path d="M31.6087 67.713C31.2373 67.3014 30.635 67.3014 30.2636 67.713L25.3317 73.1782C25.0114 73.5332 24.969 74.0777 25.2012 74.4852C25.2307 74.537 25.266 74.5853 25.3044 74.6318C25.3142 74.6438 25.3211 74.6573 25.3317 74.669C25.513 74.8699 25.7493 74.9712 25.9868 74.9759C25.9926 74.9761 25.9984 74.9778 26.0042 74.9778C26.2476 74.9778 26.4909 74.8748 26.6769 74.669L31.6087 69.2038C31.7479 69.0495 31.8351 68.8593 31.8698 68.6599C31.8814 68.5934 31.8872 68.5261 31.8872 68.4586C31.8874 68.1885 31.7946 67.9186 31.6087 67.713Z" fill="url(#paint8_linear_199_1043)"/>
<path d="M70.3013 73.1797L64.8199 67.7107C64.6909 67.5819 64.5357 67.4983 64.3724 67.45C64.2153 67.4036 64.0507 67.3912 63.8899 67.419C63.6831 67.4551 63.4848 67.5509 63.3251 67.7102C62.9121 68.1223 62.9121 68.79 63.3251 69.2018L68.8066 74.6708C68.8685 74.7326 68.9373 74.782 69.0091 74.8252C69.4155 75.0703 69.9507 75.0211 70.3018 74.6708C70.47 74.503 70.566 74.2919 70.5969 74.0736C70.6417 73.7571 70.5459 73.4239 70.3013 73.1797Z" fill="url(#paint9_linear_199_1043)"/>
<path d="M26.6777 29.8147C26.492 29.6295 26.2485 29.5367 26.0052 29.5367C25.9444 29.5367 25.8835 29.5425 25.8235 29.5541C25.6436 29.5889 25.472 29.6754 25.3328 29.8145C25.1471 29.9997 25.0542 30.2427 25.0542 30.4854C25.0542 30.546 25.06 30.6068 25.0716 30.6666C25.1065 30.846 25.1932 31.0172 25.3326 31.1561L30.2637 36.0752C30.2722 36.0836 30.2822 36.0892 30.2911 36.0973C30.3778 36.1777 30.4744 36.2414 30.5784 36.2835C30.6927 36.3298 30.8145 36.3529 30.9362 36.3529C31.1795 36.3529 31.4231 36.2602 31.6088 36.075C31.748 35.9361 31.8351 35.7647 31.8698 35.5855C31.8814 35.5256 31.8872 35.4651 31.8872 35.4043C31.8872 35.1615 31.7942 34.9186 31.6086 34.7334L26.6777 29.8147Z" fill="url(#paint10_linear_199_1043)"/>
<path d="M83.5141 69.217C83.0093 70.296 82.4571 71.3472 81.858 72.3685C80.6645 74.4186 79.2968 76.3506 77.77 78.1447C76.1736 80.024 74.4079 81.7531 72.4982 83.3087L44.538 55.1305C42.8545 53.4342 42.8545 50.6841 44.538 48.9878C44.6125 48.9126 44.6871 48.8421 44.7666 48.7744C46.3778 47.3594 48.785 47.3594 50.3964 48.7744C50.4761 48.8421 50.5506 48.9124 50.625 48.9878C50.6995 49.0629 50.7742 49.1433 50.8389 49.2238H50.8413C50.8909 49.2262 50.9408 49.2288 50.9954 49.2312C51.0899 49.2387 51.1945 49.2438 51.3062 49.2512C51.893 49.2888 52.6963 49.3516 53.6287 49.4369C53.9072 49.462 54.1982 49.4896 54.4991 49.5197C54.7153 49.5422 54.9368 49.5624 55.163 49.5874C55.3546 49.6074 55.5486 49.6276 55.7473 49.6476C55.8914 49.6626 56.0382 49.6804 56.1849 49.6953C56.4188 49.7204 56.6524 49.748 56.8887 49.7757C58.0127 49.9062 59.1764 50.0541 60.2878 50.22C60.4396 50.2424 60.5912 50.2652 60.7405 50.2901C60.7627 50.2925 60.7878 50.2951 60.81 50.3002C60.984 50.3279 61.1558 50.3554 61.3248 50.3806C61.4937 50.4107 61.6605 50.4384 61.8247 50.4659C61.934 50.4859 62.0435 50.5036 62.1529 50.5236C62.3194 50.5538 62.486 50.5839 62.6502 50.6166C62.7323 50.6315 62.8144 50.6467 62.8939 50.6618C63.0629 50.697 63.2244 50.7295 63.3838 50.7623C63.4335 50.7724 63.4809 50.7823 63.5282 50.7924C63.5928 50.8073 63.6575 50.8227 63.7198 50.835C63.7496 50.84 63.7794 50.8475 63.8093 50.855C63.9014 50.8774 63.9933 50.8976 64.0802 50.9176C64.1422 50.9326 64.2019 50.9479 64.2592 50.9602C64.4904 51.0205 64.7069 51.078 64.9107 51.1358C64.9579 51.1508 65.0052 51.1659 65.05 51.1784C65.0875 51.1885 65.1221 51.2009 65.157 51.2112C65.2092 51.2288 65.2589 51.2463 65.3087 51.2615C65.3261 51.2665 65.3436 51.2714 65.361 51.2791C65.4605 51.3142 65.5526 51.3467 65.6395 51.3819C65.6469 51.3843 65.6543 51.3894 65.6643 51.3918C65.7116 51.4118 65.7588 51.432 65.8037 51.4496C65.9106 51.4973 66.0051 51.5425 66.0898 51.5902C66.1272 51.6126 66.1593 51.6328 66.1917 51.6528C66.296 51.7205 66.3757 51.7884 66.4279 51.8561C66.4454 51.8736 66.4578 51.8939 66.4678 51.9112C66.4702 51.9163 66.4728 51.9187 66.4728 51.9213C66.4852 51.9438 66.495 51.9666 66.5002 51.9914C66.5076 52.0139 66.51 52.0367 66.51 52.0591L83.5141 69.217Z" fill="url(#paint11_linear_199_1043)"/>
<path d="M50.6624 55.2866C49.0985 55.2866 47.8306 53.9302 47.8306 52.2572C47.8306 50.5842 49.0985 49.2278 50.6624 49.2278C52.2263 49.2278 66.8111 50.5842 66.8111 52.2572C66.8113 53.9304 52.2263 55.2866 50.6624 55.2866Z" fill="#BB2028"/>
<path d="M50.8675 49.398C50.8675 50.9771 49.5077 52.2574 47.8306 52.2574C46.1535 52.2574 44.7937 50.9771 44.7937 49.398C44.7937 47.8189 46.1535 24.9927 47.8306 24.9927C49.5077 24.9929 50.8675 47.8189 50.8675 49.398Z" fill="#BB2028"/>
<path d="M47.4511 56.044C49.7573 56.044 51.6268 54.1791 51.6268 51.8786C51.6268 49.5781 49.7573 47.7131 47.4511 47.7131C45.1449 47.7131 43.2754 49.5781 43.2754 51.8786C43.2754 54.1791 45.1449 56.044 47.4511 56.044Z" fill="white"/>
<path d="M99.8878 45.2434H95.2988H95.0859C91.7515 22.2612 71.8142 4.54407 47.7898 4.54407C21.4383 4.54407 0 25.8582 0 52.057C0 62.8675 3.75041 73.4481 10.5603 81.8497C17.2676 90.1248 26.6673 95.9881 37.0278 98.3598C37.3113 98.425 37.5947 98.4558 37.874 98.4558C39.5847 98.4558 41.1315 97.2861 41.5318 95.558C41.9973 93.5476 40.7356 91.543 38.7133 91.0802C29.9868 89.0824 22.0665 84.1399 16.4109 77.1626C10.5904 69.9817 7.51393 61.3006 7.51393 52.0574C7.51393 29.9776 25.5815 12.0147 47.7898 12.0147C67.6621 12.0147 84.2166 26.3983 87.4796 45.2436H83.5166C80.5237 45.2436 79.0249 48.8412 81.1412 50.9451L89.3269 59.0834C90.6387 60.3877 92.7659 60.3877 94.0777 59.0834L102.263 50.9451C104.38 48.841 102.881 45.2434 99.8878 45.2434Z" fill="#BB2028"/>
</g>
<defs>
<linearGradient id="paint0_linear_199_1043" x1="49.2143" y1="53.6399" x2="101.163" y2="105.716" gradientUnits="userSpaceOnUse">
<stop stop-color="white"/>
<stop offset="1" stop-color="#C3C3C3"/>
</linearGradient>
<linearGradient id="paint1_linear_199_1043" x1="63.7278" y1="53.2779" x2="21.0302" y2="48.5209" gradientUnits="userSpaceOnUse">
<stop stop-color="#C3C3C3" stop-opacity="0"/>
<stop offset="0.267" stop-color="#A4A4A4" stop-opacity="0.267"/>
<stop offset="0.542" stop-color="#8B8B8B" stop-opacity="0.542"/>
<stop offset="0.794" stop-color="#7C7C7C" stop-opacity="0.794"/>
<stop offset="1" stop-color="#777777"/>
</linearGradient>
<linearGradient id="paint2_linear_199_1043" x1="47.8298" y1="51.1463" x2="47.8298" y2="57.9272" gradientUnits="userSpaceOnUse">
<stop stop-color="#F18D00"/>
<stop offset="1" stop-color="#ED7103"/>
</linearGradient>
<linearGradient id="paint3_linear_199_1043" x1="45.5168" y1="24.5177" x2="48.4093" y2="29.1061" gradientUnits="userSpaceOnUse">
<stop stop-color="#FF7A7A"/>
<stop offset="1" stop-color="#F75900"/>
</linearGradient>
<linearGradient id="paint4_linear_199_1043" x1="45.5168" y1="78.6288" x2="48.7517" y2="83.3658" gradientUnits="userSpaceOnUse">
<stop stop-color="#FF7A7A"/>
<stop offset="1" stop-color="#F75900"/>
</linearGradient>
<linearGradient id="paint5_linear_199_1043" x1="66.4004" y1="51.7598" x2="66.4586" y2="53.3607" gradientUnits="userSpaceOnUse">
<stop stop-color="#FF7A7A"/>
<stop offset="1" stop-color="#F75900"/>
</linearGradient>
<linearGradient id="paint6_linear_199_1043" x1="12.7606" y1="51.7598" x2="12.8237" y2="53.3603" gradientUnits="userSpaceOnUse">
<stop stop-color="#FF7A7A"/>
<stop offset="1" stop-color="#F75900"/>
</linearGradient>
<linearGradient id="paint7_linear_199_1043" x1="60.3631" y1="32.5886" x2="61.0317" y2="37.3027" gradientUnits="userSpaceOnUse">
<stop stop-color="#FF7A7A"/>
<stop offset="1" stop-color="#F75900"/>
</linearGradient>
<linearGradient id="paint8_linear_199_1043" x1="22.6671" y1="70.7953" x2="23.5749" y2="75.9795" gradientUnits="userSpaceOnUse">
<stop stop-color="#FF7A7A"/>
<stop offset="1" stop-color="#F75900"/>
</linearGradient>
<linearGradient id="paint9_linear_199_1043" x1="60.3631" y1="70.7953" x2="61.1847" y2="76.009" gradientUnits="userSpaceOnUse">
<stop stop-color="#FF7A7A"/>
<stop offset="1" stop-color="#F75900"/>
</linearGradient>
<linearGradient id="paint10_linear_199_1043" x1="22.6671" y1="32.5886" x2="23.4066" y2="37.281" gradientUnits="userSpaceOnUse">
<stop stop-color="#FF7A7A"/>
<stop offset="1" stop-color="#F75900"/>
</linearGradient>
<linearGradient id="paint11_linear_199_1043" x1="63.2697" y1="61.3415" x2="45.7357" y2="42.2553" gradientUnits="userSpaceOnUse">
<stop stop-color="#C3C3C3" stop-opacity="0"/>
<stop offset="0.267" stop-color="#A4A4A4" stop-opacity="0.267"/>
<stop offset="0.542" stop-color="#8B8B8B" stop-opacity="0.542"/>
<stop offset="0.794" stop-color="#7C7C7C" stop-opacity="0.794"/>
<stop offset="1" stop-color="#777777"/>
</linearGradient>
<clipPath id="clip0_199_1043">
<rect width="103.254" height="103" fill="white"/>
</clipPath>
</defs>
</svg>
