<svg width="241" height="94" viewBox="0 0 241 94" fill="none" xmlns="http://www.w3.org/2000/svg">
<path d="M69.2188 24.1562C69.0521 23.8646 69.8438 22.8438 71.5938 21.0938C73.3646 19.3229 74.25 18.0208 74.25 17.1875C74.25 16.5833 74.1458 16.2188 73.9375 16.0938C73.7292 15.9479 73.1354 15.875 72.1562 15.875C70.7396 15.875 68.7604 16.2917 66.2188 17.125C64.1146 17.7917 60.6562 19.2812 55.8438 21.5938C51.0312 23.9062 46.9167 26.0521 43.5 28.0312C39.6458 30.2604 34.7188 33.4479 28.7188 37.5938C22.7188 41.7396 19.0104 44.5208 17.5938 45.9375C17.0729 46.4583 16.0312 48.6771 14.4688 52.5938C14.0521 53.6562 13.7604 54.3854 13.5938 54.7812C13.4271 55.1771 13.2396 55.7292 13.0312 56.4375C12.8229 57.125 12.6875 57.5625 12.625 57.75C12.5833 57.9167 12.5833 58.2396 12.625 58.7188C12.6667 59.1771 12.7188 59.4583 12.7812 59.5625C12.8646 59.6667 13.0625 59.9271 13.375 60.3438C13.6875 60.7604 13.9479 61.0625 14.1562 61.25C14.3646 61.4167 14.75 61.7604 15.3125 62.2812C18.7917 65.4896 23.0104 67.2708 27.9688 67.625C32.9479 67.9792 38.9375 66.9375 45.9375 64.5C49.125 63.375 51.1979 62.7292 52.1562 62.5625C52.7604 62.4375 53.125 62.4271 53.25 62.5312C53.3958 62.6146 53.4271 62.8958 53.3438 63.375C53.2812 63.8125 53 64.2083 52.5 64.5625C52.0208 64.8958 51.0938 65.3333 49.7188 65.875C41.8854 68.9792 34.8333 70.3646 28.5625 70.0312C22.3125 69.6771 17.2292 67.6146 13.3125 63.8438L10.875 61.5312L9.59375 64.75C6.73958 71.8333 4.71875 77.7708 3.53125 82.5625C2.34375 87.3542 2.26042 89.9479 3.28125 90.3438C3.48958 90.4062 3.66667 90.5521 3.8125 90.7812C3.95833 91.0104 4.03125 91.25 4.03125 91.5C4.03125 91.9167 3.79167 92.1979 3.3125 92.3438C2.85417 92.5104 2.34375 92.5104 1.78125 92.3438C1.23958 92.1979 0.864583 91.9167 0.65625 91.5C0.239583 90.7083 0.09375 89.3438 0.21875 87.4062C0.34375 85.4688 0.71875 83.3333 1.34375 81C1.94792 78.7083 2.96875 75.5104 4.40625 71.4062C5.86458 67.2812 7.05208 64.1875 7.96875 62.125C8.63542 60.4792 8.95833 58.6667 8.9375 56.6875C8.875 54.9583 9.125 53.4167 9.6875 52.0625C10.2708 50.7083 11.3333 49.0938 12.875 47.2188C13.4375 46.5312 14.0625 45.5729 14.75 44.3438C15.4375 43.1146 16.0104 41.8958 16.4688 40.6875C17.5104 38.0417 19.4792 32.3958 22.375 23.75C25.2917 15.1042 27.1667 9.33333 28 6.4375C28.6875 4.0625 29.2396 2.53125 29.6562 1.84375C30.0729 1.15625 30.5521 0.979167 31.0938 1.3125C31.6146 1.64583 31.5208 3.09375 30.8125 5.65625C30.125 8.19792 28.1354 14.3958 24.8438 24.25C23.2812 28.9167 21.9688 32.8958 20.9062 36.1875C19.8438 39.4583 19.3333 41.0938 19.375 41.0938C19.4583 41.0938 20.6771 40.2292 23.0312 38.5C30.0938 33.3125 37.7812 28.4167 46.0938 23.8125C54.4062 19.1875 61.1354 16.0729 66.2812 14.4688C68.2188 13.8646 69.9688 13.5417 71.5312 13.5C73.0938 13.4375 74.3021 13.6354 75.1562 14.0938C76.0312 14.5521 76.6146 15.1771 76.9062 15.9688C77.1979 16.7604 77.0729 17.7396 76.5312 18.9062C75.9896 20.0521 75.0625 21.2708 73.75 22.5625C72.7708 23.5208 71.8542 24.1562 71 24.4688C70.1458 24.7604 69.5521 24.6562 69.2188 24.1562ZM71.185 57.4688C71.3933 57.9896 71.1954 58.5417 70.5913 59.125C70.0079 59.7083 68.3725 60.9479 65.685 62.8438C62.6433 65.0104 60.3204 66.3854 58.7163 66.9688C57.1121 67.5521 55.6225 67.5625 54.2475 67C52.9975 66.5 52.3413 65.3125 52.2788 63.4375C52.2163 61.5417 52.7579 59.3854 53.9038 56.9688C54.6329 55.4271 55.3621 54.1875 56.0913 53.25C56.8413 52.2917 57.7267 51.6458 58.7475 51.3125C59.81 50.9792 60.6642 51.1667 61.31 51.875C61.9767 52.5625 62.2163 53.375 62.0288 54.3125C61.8413 55.3125 61.1433 56.4688 59.935 57.7812C58.7267 59.0729 57.685 59.7188 56.81 59.7188C56.1225 59.7188 55.6746 59.8333 55.4663 60.0625C55.2579 60.2708 55.0496 60.8854 54.8413 61.9062C54.6538 62.8854 54.7683 63.6875 55.185 64.3125C55.5183 64.7292 55.8204 64.9583 56.0913 65C56.3621 65.0208 56.935 64.9062 57.81 64.6562C58.9975 64.3229 61.2996 62.9167 64.7163 60.4375C66.0288 59.4792 67.06 58.75 67.81 58.25C68.56 57.7292 69.185 57.3646 69.685 57.1562C70.185 56.9271 70.5288 56.8542 70.7163 56.9375C70.9038 57 71.06 57.1771 71.185 57.4688ZM57.7788 55.125C57.0288 56.2083 56.7996 56.8229 57.0913 56.9688C57.2996 57.0312 57.6642 56.8229 58.185 56.3438C58.9767 55.5938 59.3725 55 59.3725 54.5625C59.3725 54 59.185 53.8125 58.81 54C58.4975 54.1458 58.1538 54.5208 57.7788 55.125ZM87.4638 54.0625C88.4221 53.7083 89.1304 53.6458 89.5888 53.875C90.0679 54.0833 90.1721 54.5208 89.9013 55.1875C89.6096 55.9583 88.5992 56.5 86.87 56.8125C85.1617 57.125 84.0054 56.9792 83.4013 56.375C83.1304 56.1042 82.9221 56 82.7763 56.0625C82.4429 56.1875 81.5158 57.2188 79.995 59.1562C79.5992 59.6771 78.7971 60.7188 77.5888 62.2812C75.8179 64.6354 74.5679 66.1667 73.8388 66.875C73.1304 67.5625 72.4533 67.9375 71.8075 68C71.2033 68.0625 70.7763 68.0312 70.5263 67.9062C70.2763 67.7604 70.0679 67.4688 69.9013 67.0312C69.4221 65.5938 69.6096 62.8125 70.4638 58.6875C71.0471 55.7083 71.7554 54.1875 72.5888 54.125C72.7971 54.125 72.995 54.2188 73.1825 54.4062C73.3908 54.6354 73.4638 55.0833 73.4013 55.75C73.3596 56.3958 73.1929 57.5 72.9013 59.0625C72.7554 59.7917 72.6304 60.4062 72.5263 60.9062C72.4429 61.4062 72.37 61.8854 72.3075 62.3438C72.245 62.7812 72.2033 63.1354 72.1825 63.4062C72.1617 63.6562 72.1721 63.875 72.2138 64.0625C72.2554 64.2292 72.3075 64.3229 72.37 64.3438C72.4533 64.3646 72.5783 64.3333 72.745 64.25C72.9117 64.1458 73.0888 64 73.2763 63.8125C73.4638 63.6042 73.7033 63.3229 73.995 62.9688C74.3075 62.5938 74.62 62.2083 74.9325 61.8125C75.2658 61.3958 75.6617 60.875 76.12 60.25C77.1408 58.875 79.1096 56.2396 82.0263 52.3438L84.9325 48.4688C85.2658 48.0312 85.495 47.8021 85.62 47.7812C85.7658 47.7396 86.0158 47.8854 86.37 48.2188C86.7242 48.5729 86.8804 48.9167 86.8388 49.25C86.8179 49.5833 86.5679 50.3333 86.0888 51.5C85.4013 53.1667 85.1617 54.1146 85.37 54.3438C85.62 54.5938 86.3179 54.5 87.4638 54.0625ZM114.618 56.9375C115.18 56.875 115.576 57.0833 115.805 57.5625C116.034 58.0417 115.888 58.5938 115.368 59.2188C114.951 59.6771 114.493 60.1667 113.993 60.6875C113.493 61.1875 112.649 61.9583 111.461 63C110.274 64.0417 109.086 64.9792 107.899 65.8125C106.711 66.625 105.305 67.4167 103.68 68.1875C102.055 68.9583 100.482 69.4896 98.9613 69.7812C96.7529 70.1979 94.7946 69.8646 93.0863 68.7812C91.3779 67.6771 90.4196 66.1354 90.2113 64.1562C90.0029 62.0729 90.1279 59.8958 90.5863 57.625C90.9821 55.7083 91.4717 54.3229 92.055 53.4688C92.6383 52.6146 93.2529 52.3958 93.8988 52.8125C94.1904 52.9792 94.3363 53.375 94.3363 54C94.3363 54.6042 94.2008 54.9896 93.93 55.1562C93.6383 55.3438 93.305 56.6979 92.93 59.2188C92.68 60.8229 92.555 61.9583 92.555 62.625C92.5758 63.2708 92.7425 63.9688 93.055 64.7188C93.6383 66.1354 94.7738 66.9271 96.4613 67.0938C98.1696 67.2396 99.9508 66.9375 101.805 66.1875C103.68 65.4375 105.399 64.4583 106.961 63.25C107.94 62.4792 109.034 61.5521 110.243 60.4688C111.472 59.3646 112.43 58.5104 113.118 57.9062C113.826 57.3021 114.326 56.9792 114.618 56.9375ZM95.5863 49C95.3571 49.2292 95.0654 49.3438 94.7113 49.3438C94.3571 49.3438 94.055 49.2292 93.805 49C93.5758 48.75 93.4613 48.4479 93.4613 48.0938C93.4613 47.7396 93.5758 47.4479 93.805 47.2188C94.055 46.9688 94.3571 46.8438 94.7113 46.8438C95.0654 46.8438 95.3571 46.9688 95.5863 47.2188C95.8363 47.4479 95.9613 47.7396 95.9613 48.0938C95.9613 48.4479 95.8363 48.75 95.5863 49ZM140.177 57.5625C140.469 57.4375 140.75 57.4792 141.021 57.6875C141.313 57.8958 141.469 58.2083 141.49 58.625C141.532 59.0208 141.365 59.4896 140.99 60.0312C140.427 60.7812 139.344 61.8125 137.74 63.125C136.157 64.4375 135.084 65.2188 134.521 65.4688C132.313 66.3854 130.365 66.4271 128.677 65.5938C127.907 65.2188 127.24 64.5104 126.677 63.4688C126.136 62.4271 125.75 61.4896 125.521 60.6562C125.292 59.8021 125.157 59.375 125.115 59.375C124.761 59.375 124.146 59.8333 123.271 60.75C122.396 61.6667 121.605 62.6771 120.896 63.7812C119 66.7812 117.48 68.3854 116.334 68.5938C115.771 68.6979 115.375 68.4271 115.146 67.7812C115 67.4271 115.198 65.5 115.74 62C116.282 58.5 116.823 55.6354 117.365 53.4062C117.615 52.4688 117.969 51.8125 118.427 51.4375C118.886 51.0625 119.323 51.0729 119.74 51.4688C120.032 51.7604 119.865 53.6562 119.24 57.1562C118.594 60.6979 118.271 62.5417 118.271 62.6875C118.271 62.7708 118.459 62.5833 118.834 62.125C119.084 61.8333 119.375 61.4583 119.709 61C120.625 59.75 121.73 58.6771 123.021 57.7812C124.334 56.8646 125.355 56.4583 126.084 56.5625C126.542 56.625 126.886 56.8333 127.115 57.1875C127.344 57.5417 127.594 58.2708 127.865 59.375C128.573 62.2083 129.875 63.625 131.771 63.625C132.521 63.625 133.375 63.3229 134.334 62.7188C135.292 62.1146 136.136 61.4583 136.865 60.75C137.594 60.0208 138.282 59.3229 138.927 58.6562C139.594 57.9896 140.011 57.625 140.177 57.5625ZM207.829 71.9375C207.579 72.0417 206.485 72.1875 204.548 72.375C202.631 72.5417 199.891 72.9583 196.329 73.625C192.766 74.2708 189.058 75.1979 185.204 76.4062C180.558 77.8646 176.308 79.7604 172.454 82.0938C168.62 84.4479 165.339 87.1042 162.61 90.0625C161.214 91.6042 160.298 92.5208 159.86 92.8125C159.443 93.125 159.016 93.1354 158.579 92.8438C158.287 92.6562 158.131 92.4479 158.11 92.2188C158.11 91.9896 158.214 91.6042 158.423 91.0625C159.235 89.0417 160.975 84.9583 163.641 78.8125C169.475 65.1458 173.391 55.7083 175.391 50.5C177.412 45.2917 179.412 39.375 181.391 32.75C183.016 27.2917 183.777 24.4583 183.673 24.25C183.631 24.1458 183.443 24.3438 183.11 24.8438C183.089 24.8646 183.068 24.8854 183.048 24.9062C182.61 25.5312 182.131 25.7917 181.61 25.6875C181.11 25.5833 180.86 25.1667 180.86 24.4375C180.86 24.1667 181.068 23.6042 181.485 22.75C181.923 21.875 182.443 20.9688 183.048 20.0312C184.527 17.5729 185.589 15.4792 186.235 13.75C186.964 11.8958 187.61 10.9688 188.173 10.9688C188.735 10.9688 189.12 11.1354 189.329 11.4688C189.62 11.9271 188.6 16.3333 186.266 24.6875C183.954 33.0208 181.756 40.1771 179.673 46.1562C178.027 50.8646 175.902 56.2708 173.298 62.375C167.027 77.2708 163.891 84.7917 163.891 84.9375C163.891 84.9792 164.048 84.8958 164.36 84.6875C164.673 84.4792 165.11 84.1667 165.673 83.75C166.256 83.3542 166.85 82.9167 167.454 82.4375C170.35 80.2708 174.568 78.0938 180.11 75.9062C185.673 73.7188 190.204 72.2917 193.704 71.625C195.537 71.2708 197.506 70.9583 199.61 70.6875C201.714 70.3958 203.527 70.1667 205.048 70C206.589 69.8333 207.402 69.7396 207.485 69.7188C208.006 69.6146 208.381 69.7188 208.61 70.0312C208.839 70.3229 208.87 70.6667 208.704 71.0625C208.558 71.4583 208.266 71.75 207.829 71.9375ZM217.826 60.25C219.868 58.0417 221.087 57.25 221.482 57.875C221.607 58.0833 221.67 58.4271 221.67 58.9062C221.67 59.3854 221.16 60.2188 220.139 61.4062C219.139 62.5938 218.035 63.6875 216.826 64.6875C215.639 65.6667 214.805 66.1562 214.326 66.1562C213.014 66.1562 212.16 65.5938 211.764 64.4688C211.368 63.3438 211.451 61.75 212.014 59.6875C212.68 57.3542 212.441 57.0729 211.295 58.8438C211.024 59.2604 210.712 59.7812 210.357 60.4062C208.128 64.4062 206.368 66.75 205.076 67.4375C204.451 67.7917 204.024 67.9792 203.795 68C203.587 68 203.139 67.8646 202.451 67.5938C201.722 67.3021 201.253 66.6771 201.045 65.7188C200.837 64.7396 200.837 63.1354 201.045 60.9062C201.524 55.4479 202.295 51.9375 203.357 50.375C203.837 49.6667 204.316 49.5521 204.795 50.0312C205.191 50.4271 205.128 51.8854 204.607 54.4062C204.232 56.1354 203.93 57.8542 203.701 59.5625C203.472 61.2708 203.357 62.6146 203.357 63.5938C203.357 64.5521 203.462 65.0833 203.67 65.1875C204.482 65.1875 206.41 62.4792 209.451 57.0625C210.826 54.6458 211.972 52.8958 212.889 51.8125C213.805 50.7083 214.618 50.1562 215.326 50.1562C216.118 50.1562 216.545 50.6354 216.607 51.5938C216.67 52.5521 216.368 54.0938 215.701 56.2188C214.43 60.3854 213.941 62.6875 214.232 63.125C214.503 63.5208 215.472 62.8125 217.139 61C217.347 60.7708 217.576 60.5208 217.826 60.25ZM239.324 56.0938C239.74 55.9896 240.022 56.0938 240.167 56.4062C240.334 56.7188 240.355 57.0833 240.23 57.5C240.126 57.9167 239.938 58.2083 239.667 58.375C239.459 58.5 239.136 58.6146 238.699 58.7188C238.261 58.8229 237.49 59.0625 236.386 59.4375C235.303 59.8125 233.99 60.3333 232.449 61C230.178 61.9792 228.647 62.7188 227.855 63.2188C227.084 63.6979 226.397 64.3646 225.792 65.2188C224.813 66.5938 223.813 67.5 222.792 67.9375C221.792 68.3542 220.834 68.2812 219.917 67.7188C219.334 67.3438 218.917 66.8854 218.667 66.3438C218.417 65.8021 218.334 65.2708 218.417 64.75C218.501 64.2083 218.584 63.7917 218.667 63.5C218.772 63.2083 218.876 62.9688 218.98 62.7812C219.188 62.4271 219.47 62.0833 219.824 61.75C220.178 61.3958 220.501 61.1562 220.792 61.0312C221.522 60.7396 221.886 60.2292 221.886 59.5C221.907 58.7083 222.417 57.4792 223.417 55.8125C224.438 54.1458 225.355 53.0208 226.167 52.4375C227.292 51.625 228.209 51.1875 228.917 51.125C229.647 51.0625 230.272 51.3333 230.792 51.9375C231.105 52.2917 231.313 52.5729 231.417 52.7812C231.542 52.9688 231.636 53.3333 231.699 53.875C231.761 54.4167 231.678 55.0625 231.449 55.8125C231.345 56.2917 231.188 56.7917 230.98 57.3125C230.792 57.8333 230.636 58.2396 230.511 58.5312C230.386 58.8229 230.324 58.9792 230.324 59C230.345 59.0208 231.011 58.8125 232.324 58.375C233.636 57.9375 235.042 57.4688 236.542 56.9688C238.063 56.4688 238.99 56.1771 239.324 56.0938ZM222.824 64.75C223.24 64.3125 223.49 64.0208 223.574 63.875C223.657 63.7292 223.667 63.6042 223.605 63.5C223.542 63.3958 223.324 63.25 222.949 63.0625C222.553 62.8333 222.251 62.75 222.042 62.8125C221.855 62.8542 221.657 63.0729 221.449 63.4688C221.261 63.8438 221.115 64.2188 221.011 64.5938C220.928 64.9688 220.907 65.2812 220.949 65.5312C221.011 65.7812 221.136 65.9062 221.324 65.9062C221.636 65.9062 222.136 65.5208 222.824 64.75ZM227.199 58.5312C228.178 56.8438 228.667 55.6354 228.667 54.9062C228.667 54.4271 228.615 54.1562 228.511 54.0938C228.407 54.0312 228.147 54.125 227.73 54.375C227.188 54.7292 226.48 55.6562 225.605 57.1562C224.73 58.6562 224.292 59.7083 224.292 60.3125C224.292 61.0417 224.563 61.2708 225.105 61C225.751 60.6875 226.449 59.8646 227.199 58.5312Z" fill="#AAAAAA"/>
</svg>
